<?xml version="1.0" encoding="utf-8"?>
<!-- Generator: Adobe Illustrator 16.0.0, SVG Export Plug-In . SVG Version: 6.00 Build 0)  -->
<!DOCTYPE svg PUBLIC "-//W3C//DTD SVG 1.1//EN" "http://www.w3.org/Graphics/SVG/1.1/DTD/svg11.dtd">
<svg version="1.1" id="Layer_1" xmlns="http://www.w3.org/2000/svg" xmlns:xlink="http://www.w3.org/1999/xlink" x="0px" y="0px"
	 width="198.901px" height="382.71px" viewBox="0 0 198.901 382.71" enable-background="new 0 0 198.901 382.71"
	 xml:space="preserve">
<path fill-rule="evenodd" clip-rule="evenodd" fill="#050606" d="M160.399,9.087H38.502c-17.653,0-32.096,14.452-32.096,32.117
	V342.2c0,17.663,14.443,32.114,32.096,32.114h121.897c17.652,0,32.096-14.451,32.096-32.114V41.204
	C192.495,23.539,178.052,9.087,160.399,9.087z M99.605,359.676c-10.065,0-18.222-8.162-18.222-18.232s8.157-18.233,18.222-18.233
	c10.064,0,18.221,8.163,18.221,18.233S109.67,359.676,99.605,359.676z M177.635,309.811H21.051V72.727h156.583V309.811z"/>
</svg>
