<?xml version="1.0" encoding="utf-8"?>
<!-- Generator: Adobe Illustrator 16.0.0, SVG Export Plug-In . SVG Version: 6.00 Build 0)  -->
<!DOCTYPE svg PUBLIC "-//W3C//DTD SVG 1.1//EN" "http://www.w3.org/Graphics/SVG/1.1/DTD/svg11.dtd">
<svg version="1.1" id="Layer_1" xmlns="http://www.w3.org/2000/svg" xmlns:xlink="http://www.w3.org/1999/xlink" x="0px" y="0px"
	 width="298.976px" height="382.71px" viewBox="0 0 298.976 382.71" enable-background="new 0 0 298.976 382.71"
	 xml:space="preserve">
<path fill-rule="evenodd" clip-rule="evenodd" fill="#050606" d="M290.315,17.397c-0.933-1.719-2.17-3.251-3.633-4.549
	c-3.277-2.992-7.624-4.834-12.412-4.834H24.708c-3.226,0-6.254,0.833-8.89,2.29c-3.512,1.777-6.307,4.761-7.826,8.418
	c-1.09,2.352-1.714,4.963-1.714,7.725v328.734c0,3.264,0.854,6.32,2.339,8.977c0.531,0.983,1.159,1.899,1.868,2.75
	c3.38,4.095,8.496,6.707,14.222,6.707h249.563c10.177,0,18.427-8.25,18.427-18.434V26.447
	C292.697,23.156,291.827,20.073,290.315,17.397z M144.934,362.741c-4.162,0-7.537-3.376-7.537-7.537
	c0-4.164,3.375-7.541,7.537-7.541c4.165,0,7.539,3.377,7.539,7.541C152.473,359.365,149.099,362.741,144.934,362.741z
	 M260.172,337.062H40.566V42.135h219.606V337.062z"/>
</svg>
